<?xml version="1.0" standalone="no"?>
<!DOCTYPE svg PUBLIC "-//W3C//DTD SVG 20010904//EN"
 "http://www.w3.org/TR/2001/REC-SVG-20010904/DTD/svg10.dtd">
<svg version="1.0" xmlns="http://www.w3.org/2000/svg"
 width="180.000000pt" height="60.000000pt" viewBox="0 0 180.000000 60.000000"
 preserveAspectRatio="xMidYMid meet">

<g transform="translate(0.000000,60.000000) scale(0.100000,-0.100000)"
fill="#000000" stroke="none">
<path d="M55 500 l39 -40 123 0 123 0 0 -38 c0 -51 43 -135 88 -172 74 -61
177 -76 263 -39 l49 21 0 50 0 49 -32 -25 c-106 -79 -247 -36 -288 90 -12 35
-10 90 5 127 7 16 -7 17 -201 17 l-208 0 39 -40z"/>
<path d="M862 335 c-52 -105 -52 -105 -27 -105 21 0 30 10 52 55 15 30 30 55
33 55 3 0 17 -24 31 -53 21 -41 32 -53 54 -55 l27 -4 -52 99 c-29 54 -56 101
-59 105 -4 4 -30 -40 -59 -97z"/>
<path d="M145 395 c27 -34 29 -35 100 -35 l72 0 -6 33 -7 32 -93 3 -93 3 27
-36z"/>
<path d="M1060 424 c0 -3 16 -24 35 -47 19 -22 35 -44 35 -48 0 -4 -16 -27
-36 -51 -36 -42 -36 -43 -13 -46 16 -3 32 6 53 29 l29 33 27 -33 c21 -24 34
-32 54 -29 l26 3 -40 47 -40 46 40 49 c40 48 40 48 16 51 -18 2 -33 -6 -54
-30 l-30 -32 -27 32 c-16 20 -36 32 -51 32 -13 0 -24 -3 -24 -6z"/>
<path d="M1315 330 l0 -100 113 0 c105 0 112 1 112 20 0 19 -7 20 -90 20 l-90
0 0 60 0 60 90 0 c83 0 90 1 90 20 0 19 -7 20 -112 20 l-113 0 0 -100z"/>
<path d="M1591 413 c7 -10 26 -33 41 -51 l28 -33 -40 -47 -40 -47 26 -3 c20
-3 33 5 54 29 l27 33 29 -33 c21 -23 37 -32 53 -29 23 3 23 4 -13 46 -20 24
-36 47 -36 51 0 4 16 26 35 48 42 49 42 53 11 53 -15 0 -35 -12 -51 -32 l-27
-32 -29 32 c-19 21 -38 32 -55 32 -24 0 -25 -2 -13 -17z"/>
<path d="M257 258 c75 -98 75 -98 146 -98 l62 0 28 -45 c33 -51 53 -58 166
-53 l73 3 2 63 c0 34 0 62 0 62 -1 0 -19 -7 -40 -16 -27 -11 -61 -15 -119 -12
-70 3 -89 7 -131 33 -27 17 -65 52 -84 78 -35 47 -35 47 -93 47 l-58 0 48 -62z"/>
</g>
</svg>
